<svg width="525" height="163" viewBox="0 0 525 163" fill="none" xmlns="http://www.w3.org/2000/svg">
<path d="M522.081 144.221C522.081 152.87 515.397 159.876 507.131 159.876H17.8837C9.62094 159.876 2.91406 152.87 2.91406 144.221V19.3837C2.91406 10.7391 9.62094 3.70898 17.8837 3.70898H507.127C515.397 3.70898 522.077 10.7391 522.077 19.3837L522.081 144.221Z" fill="black"/>
<path d="M505.556 3.89962C514.558 3.89962 521.884 11.5425 521.884 20.9351V142.653C521.884 152.046 514.558 159.689 505.556 159.689H19.4444C10.4417 159.689 3.11597 152.046 3.11597 142.653V20.9351C3.11597 11.5425 10.4417 3.89962 19.4444 3.89962H505.556ZM505.556 0.648732H19.4444C8.75486 0.648732 0 9.78265 0 20.9351V142.653C0 153.806 8.75486 162.939 19.4444 162.939H505.556C516.245 162.939 525 153.806 525 142.653V20.9351C525 9.78265 516.245 0.648732 505.556 0.648732Z" fill="#A6A6A6"/>
<path d="M117.168 80.9219C117.055 67.8453 127.431 61.4835 127.905 61.1874C122.029 52.2492 112.921 51.028 109.721 50.9306C102.071 50.0907 94.6515 55.706 90.7548 55.706C86.7804 55.706 80.7798 51.0117 74.3126 51.1497C65.9904 51.2836 58.2048 56.3105 53.9348 64.1167C45.1226 80.0334 51.6948 103.424 60.1376 116.289C64.3609 122.59 69.2959 129.625 75.7554 129.378C82.0748 129.106 84.4354 125.175 92.0615 125.175C99.6176 125.175 101.834 129.378 108.422 129.22C115.204 129.106 119.474 122.89 123.55 116.533C128.43 109.311 130.39 102.198 130.468 101.833C130.309 101.776 117.296 96.5951 117.168 80.9219Z" fill="white"/>
<path d="M104.724 42.4671C108.123 38.0325 110.448 31.9994 109.803 25.877C104.883 26.1042 98.7309 29.4271 95.1882 33.7643C92.0537 37.5862 89.2537 43.8506 89.977 49.7418C95.5032 50.1719 101.177 46.8327 104.724 42.4671Z" fill="white"/>
<path d="M208.621 128.469H199.79L194.952 112.609H178.136L173.528 128.469H164.93L181.59 74.4746H191.88L208.621 128.469ZM193.494 105.955L189.119 91.8559C188.656 90.4156 187.789 87.0237 186.509 81.6844H186.354C185.844 83.9808 185.024 87.3727 183.896 91.8559L179.599 105.955H193.494Z" fill="white"/>
<path d="M251.468 108.518C251.468 115.139 249.753 120.373 246.323 124.215C243.251 127.636 239.436 129.344 234.882 129.344C229.967 129.344 226.436 127.502 224.285 123.818H224.13V144.327H215.838V102.347C215.838 98.1839 215.733 93.9116 215.531 89.5298H222.823L223.286 95.7009H223.441C226.206 91.0512 230.402 88.7305 236.033 88.7305C240.436 88.7305 244.111 90.5441 247.051 94.1753C249.998 97.8106 251.468 102.59 251.468 108.518ZM243.022 108.834C243.022 105.045 242.205 101.921 240.564 99.4619C238.771 96.8978 236.364 95.6157 233.346 95.6157C231.301 95.6157 229.442 96.3297 227.781 97.7376C226.117 99.1576 225.028 101.012 224.518 103.308C224.262 104.379 224.133 105.256 224.133 105.945V112.437C224.133 115.269 224.966 117.659 226.63 119.61C228.295 121.562 230.457 122.536 233.117 122.536C236.24 122.536 238.67 121.278 240.408 118.77C242.151 116.259 243.022 112.948 243.022 108.834Z" fill="white"/>
<path d="M294.386 108.518C294.386 115.139 292.671 120.373 289.238 124.215C286.169 127.636 282.354 129.344 277.8 129.344C272.885 129.344 269.354 127.502 267.207 123.818H267.051V144.327H258.76V102.347C258.76 98.1839 258.655 93.9116 258.453 89.5298H265.745L266.208 95.7009H266.363C269.124 91.0512 273.32 88.7305 278.955 88.7305C283.354 88.7305 287.029 90.5441 289.976 94.1753C292.913 97.8106 294.386 102.59 294.386 108.518ZM285.94 108.834C285.94 105.045 285.119 101.921 283.478 99.4619C281.685 96.8978 279.286 95.6157 276.264 95.6157C274.215 95.6157 272.36 96.3297 270.695 97.7376C269.031 99.1576 267.946 101.012 267.436 103.308C267.184 104.379 267.051 105.256 267.051 105.945V112.437C267.051 115.269 267.884 117.659 269.54 119.61C271.205 121.558 273.367 122.536 276.035 122.536C279.158 122.536 281.588 121.278 283.326 118.77C285.069 116.259 285.94 112.948 285.94 108.834Z" fill="white"/>
<path d="M342.372 113.325C342.372 117.918 340.844 121.654 337.776 124.539C334.404 127.692 329.71 129.266 323.678 129.266C318.11 129.266 313.645 128.146 310.266 125.902L312.187 118.692C315.827 120.989 319.821 122.141 324.172 122.141C327.295 122.141 329.726 121.403 331.472 119.934C333.21 118.465 334.077 116.493 334.077 114.035C334.077 111.844 333.362 109.998 331.927 108.501C330.5 107.004 328.116 105.612 324.787 104.326C315.726 100.8 311.199 95.635 311.199 88.8432C311.199 84.4045 312.786 80.7651 315.963 77.9332C319.128 75.0971 323.352 73.6812 328.633 73.6812C333.342 73.6812 337.255 74.5372 340.377 76.2453L338.305 83.2969C335.388 81.6415 332.09 80.8138 328.4 80.8138C325.483 80.8138 323.204 81.5644 321.571 83.0575C320.19 84.3923 319.498 86.0193 319.498 87.9465C319.498 90.0806 320.287 91.8455 321.874 93.2331C323.255 94.5152 325.763 95.9028 329.403 97.3999C333.856 99.2703 337.126 101.457 339.23 103.965C341.326 106.464 342.372 109.592 342.372 113.325Z" fill="white"/>
<path d="M369.789 96.0241H360.65V114.927C360.65 119.735 362.26 122.137 365.488 122.137C366.97 122.137 368.199 122.003 369.171 121.735L369.4 128.304C367.767 128.941 365.616 129.261 362.952 129.261C359.678 129.261 357.119 128.219 355.272 126.137C353.432 124.052 352.507 120.554 352.507 115.641V96.016H347.062V89.5244H352.507V82.3957L360.65 79.8315V89.5244H369.789V96.0241Z" fill="white"/>
<path d="M411.02 108.68C411.02 114.664 409.379 119.578 406.105 123.42C402.671 127.376 398.113 129.347 392.432 129.347C386.956 129.347 382.597 127.453 379.345 123.663C376.094 119.874 374.469 115.09 374.469 109.325C374.469 103.292 376.141 98.35 379.497 94.5077C382.845 90.6614 387.364 88.7383 393.046 88.7383C398.522 88.7383 402.928 90.633 406.253 94.4266C409.434 98.1065 411.02 102.858 411.02 108.68ZM402.418 108.96C402.418 105.369 401.683 102.29 400.194 99.7213C398.455 96.6134 395.97 95.0636 392.75 95.0636C389.418 95.0636 386.886 96.6175 385.148 99.7213C383.658 102.294 382.923 105.422 382.923 109.122C382.923 112.713 383.658 115.792 385.148 118.356C386.94 121.464 389.445 123.014 392.677 123.014C395.842 123.014 398.327 121.432 400.12 118.275C401.648 115.658 402.418 112.546 402.418 108.96Z" fill="white"/>
<path d="M437.973 97.1371C437.153 96.9789 436.278 96.8978 435.36 96.8978C432.443 96.8978 430.188 98.046 428.601 100.346C427.221 102.375 426.528 104.939 426.528 108.035V128.463H418.241L418.319 101.791C418.319 97.3035 418.214 93.2178 418.008 89.5338H425.23L425.533 96.983H425.762C426.637 94.4228 428.018 92.3617 429.908 90.8159C431.755 89.4243 433.75 88.7305 435.901 88.7305C436.667 88.7305 437.359 88.7873 437.973 88.8887V97.1371Z" fill="white"/>
<path d="M475.055 107.155C475.055 108.705 474.958 110.012 474.752 111.079H449.878C449.976 114.925 451.177 117.866 453.487 119.895C455.583 121.709 458.294 122.618 461.623 122.618C465.306 122.618 468.666 122.005 471.687 120.776L472.986 126.78C469.455 128.387 465.286 129.186 460.476 129.186C454.689 129.186 450.147 127.409 446.841 123.859C443.543 120.309 441.891 115.542 441.891 109.561C441.891 103.69 443.427 98.8014 446.503 94.9023C449.723 90.7396 454.074 88.6582 459.55 88.6582C464.928 88.6582 469 90.7396 471.765 94.9023C473.954 98.209 475.055 102.299 475.055 107.155ZM467.149 104.912C467.203 102.347 466.663 100.132 465.539 98.2618C464.104 95.8558 461.899 94.6548 458.932 94.6548C456.221 94.6548 454.016 95.8274 452.332 98.1806C450.952 100.051 450.131 102.295 449.878 104.908H467.149V104.912Z" fill="white"/>
<path d="M190.75 41.2589C190.75 46.0343 189.378 49.6291 186.636 52.0431C184.097 54.2706 180.488 55.3863 175.813 55.3863C173.495 55.3863 171.512 55.2808 169.852 55.0699V28.9776C172.018 28.6124 174.351 28.4258 176.871 28.4258C181.324 28.4258 184.68 29.436 186.943 31.4566C189.479 33.7408 190.75 37.0069 190.75 41.2589ZM186.453 41.3766C186.453 38.2809 185.668 35.9074 184.097 34.252C182.525 32.6007 180.231 31.773 177.209 31.773C175.926 31.773 174.833 31.8623 173.927 32.0489V51.8849C174.429 51.9661 175.347 52.0026 176.68 52.0026C179.799 52.0026 182.207 51.0978 183.902 49.2883C185.598 47.4787 186.453 44.8415 186.453 41.3766Z" fill="white"/>
<path d="M213.541 45.4314C213.541 48.373 212.736 50.783 211.126 52.6737C209.438 54.6171 207.202 55.5868 204.41 55.5868C201.719 55.5868 199.576 54.6577 197.978 52.7913C196.383 50.929 195.586 48.5799 195.586 45.7479C195.586 42.7861 196.406 40.3558 198.055 38.4692C199.704 36.5826 201.921 35.6372 204.713 35.6372C207.404 35.6372 209.567 36.5663 211.204 38.4286C212.759 40.2381 213.541 42.5751 213.541 45.4314ZM209.314 45.5694C209.314 43.8045 208.948 42.2911 208.221 41.0293C207.365 39.5038 206.148 38.741 204.565 38.741C202.928 38.741 201.684 39.5038 200.828 41.0293C200.097 42.2911 199.735 43.8288 199.735 45.6465C199.735 47.4114 200.101 48.9248 200.828 50.1866C201.711 51.7121 202.94 52.4749 204.526 52.4749C206.082 52.4749 207.303 51.6999 208.182 50.146C208.936 48.8598 209.314 47.3343 209.314 45.5694Z" fill="white"/>
<path d="M244.092 36.0264L238.356 55.1523H234.623L232.247 46.8471C231.644 44.7738 231.154 42.7127 230.773 40.6679H230.699C230.345 42.7695 229.855 44.8266 229.225 46.8471L226.701 55.1523H222.925L217.531 36.0264H221.72L223.792 45.1187C224.294 47.2691 224.706 49.318 225.037 51.2574H225.111C225.414 49.6588 225.916 47.622 226.623 45.1593L229.225 36.0304H232.546L235.039 44.9645C235.642 47.1433 236.132 49.2409 236.509 51.2614H236.622C236.898 49.2936 237.314 47.196 237.866 44.9645L240.091 36.0304H244.092V36.0264Z" fill="white"/>
<path d="M265.217 55.1521H261.142V44.1975C261.142 40.8219 259.913 39.134 257.447 39.134C256.238 39.134 255.262 39.5966 254.503 40.5257C253.753 41.4548 253.372 42.5503 253.372 43.804V55.1481H249.296V41.4913C249.296 39.8116 249.246 37.9899 249.148 36.0181H252.73L252.921 39.0083H253.033C253.508 38.0792 254.216 37.3123 255.145 36.6997C256.25 35.9856 257.486 35.6245 258.84 35.6245C260.551 35.6245 261.974 36.2006 263.106 37.357C264.513 38.773 265.217 40.8868 265.217 43.6944V55.1521Z" fill="white"/>
<path d="M276.454 55.1504H272.383V27.2485H276.454V55.1504Z" fill="white"/>
<path d="M300.447 45.4314C300.447 48.373 299.642 50.783 298.032 52.6737C296.344 54.6171 294.104 55.5868 291.316 55.5868C288.621 55.5868 286.478 54.6577 284.884 52.7913C283.289 50.929 282.492 48.5799 282.492 45.7479C282.492 42.7861 283.313 40.3558 284.962 38.4692C286.611 36.5826 288.827 35.6372 291.616 35.6372C294.311 35.6372 296.469 36.5663 298.11 38.4286C299.666 40.2381 300.447 42.5751 300.447 45.4314ZM296.216 45.5694C296.216 43.8045 295.851 42.2911 295.123 41.0293C294.272 39.5038 293.051 38.741 291.472 38.741C289.831 38.741 288.586 39.5038 287.734 41.0293C287.003 42.2911 286.642 43.8288 286.642 45.6465C286.642 47.4114 287.007 48.9248 287.734 50.1866C288.617 51.7121 289.846 52.4749 291.433 52.4749C292.988 52.4749 294.206 51.6999 295.084 50.146C295.843 48.8598 296.216 47.3343 296.216 45.5694Z" fill="white"/>
<path d="M320.175 55.1527H316.516L316.212 52.9496H316.099C314.847 54.7064 313.062 55.5868 310.744 55.5868C309.014 55.5868 307.614 55.0066 306.56 53.8543C305.603 52.8076 305.125 51.5052 305.125 49.9594C305.125 47.6224 306.058 45.8412 307.937 44.6078C309.811 43.3744 312.448 42.7699 315.843 42.7983V42.4412C315.843 39.9217 314.575 38.6639 312.036 38.6639C310.227 38.6639 308.633 39.1386 307.256 40.0799L306.428 37.2885C308.131 36.189 310.235 35.6372 312.716 35.6372C317.507 35.6372 319.911 38.2744 319.911 43.5489V50.5923C319.911 52.5033 320 54.0247 320.175 55.1527ZM315.944 48.5799V45.6303C311.448 45.5491 309.201 46.8353 309.201 49.4847C309.201 50.4827 309.457 51.2293 309.982 51.7283C310.507 52.2274 311.176 52.4749 311.973 52.4749C312.868 52.4749 313.704 52.1787 314.466 51.5904C315.232 50.998 315.703 50.2474 315.878 49.3264C315.921 49.1195 315.944 48.868 315.944 48.5799Z" fill="white"/>
<path d="M343.328 55.1504H339.711L339.521 52.079H339.408C338.253 54.416 336.285 55.5845 333.52 55.5845C331.311 55.5845 329.472 54.6797 328.014 52.8702C326.555 51.0606 325.828 48.7115 325.828 45.8268C325.828 42.7311 326.618 40.2237 328.204 38.3086C329.74 36.5234 331.623 35.6308 333.863 35.6308C336.324 35.6308 338.047 36.495 339.027 38.2275H339.105V27.2485H343.184V49.9976C343.184 51.8599 343.231 53.5761 343.328 55.1504ZM339.105 47.0845V43.8955C339.105 43.3437 339.066 42.8974 338.992 42.5566C338.763 41.5342 338.269 40.674 337.518 39.9802C336.76 39.2865 335.846 38.9375 334.792 38.9375C333.271 38.9375 332.081 39.5664 331.206 40.8282C330.339 42.09 329.9 43.7008 329.9 45.6685C329.9 47.5592 330.316 49.0929 331.152 50.2735C332.035 51.5313 333.225 52.1602 334.714 52.1602C336.052 52.1602 337.121 51.6368 337.934 50.5859C338.72 49.6163 339.105 48.4478 339.105 47.0845Z" fill="white"/>
<path d="M378.189 45.4314C378.189 48.373 377.384 50.783 375.774 52.6737C374.087 54.6171 371.854 55.5868 369.058 55.5868C366.371 55.5868 364.228 54.6577 362.626 52.7913C361.032 50.929 360.234 48.5799 360.234 45.7479C360.234 42.7861 361.055 40.3558 362.704 38.4692C364.353 36.5826 366.569 35.6372 369.365 35.6372C372.053 35.6372 374.219 36.5663 375.852 38.4286C377.408 40.2381 378.189 42.5751 378.189 45.4314ZM373.966 45.5694C373.966 43.8045 373.6 42.2911 372.873 41.0293C372.014 39.5038 370.8 38.741 369.214 38.741C367.58 38.741 366.336 39.5038 365.477 41.0293C364.745 42.2911 364.384 43.8288 364.384 45.6465C364.384 47.4114 364.749 48.9248 365.477 50.1866C366.359 51.7121 367.588 52.4749 369.175 52.4749C370.73 52.4749 371.955 51.6999 372.834 50.146C373.585 48.8598 373.966 47.3343 373.966 45.5694Z" fill="white"/>
<path d="M400.104 55.1521H396.032V44.1975C396.032 40.8219 394.803 39.134 392.334 39.134C391.125 39.134 390.148 39.5966 389.394 40.5257C388.64 41.4548 388.262 42.5503 388.262 43.804V55.1481H384.183V41.4913C384.183 39.8116 384.136 37.9899 384.039 36.0181H387.617L387.807 39.0083H387.92C388.399 38.0792 389.106 37.3123 390.032 36.6997C391.14 35.9856 392.373 35.6245 393.73 35.6245C395.437 35.6245 396.861 36.2006 397.992 37.357C399.404 38.773 400.104 40.8868 400.104 43.6944V55.1521Z" fill="white"/>
<path d="M427.532 39.207H423.044V48.4981C423.044 50.8594 423.842 52.0401 425.42 52.0401C426.152 52.0401 426.758 51.9752 427.237 51.8413L427.342 55.0668C426.537 55.3833 425.479 55.5415 424.176 55.5415C422.566 55.5415 421.314 55.0303 420.408 54.0079C419.498 52.9855 419.047 51.2652 419.047 48.8511V39.207H416.367V36.022H419.047V32.5165L423.04 31.2588V36.018H427.528V39.207H427.532Z" fill="white"/>
<path d="M449.109 55.1504H445.029V44.2769C445.029 40.8485 443.8 39.1323 441.339 39.1323C439.449 39.1323 438.158 40.1263 437.45 42.1144C437.329 42.5323 437.259 43.0435 437.259 43.644V55.1463H433.188V27.2485H437.259V38.7752H437.337C438.62 36.6776 440.46 35.6308 442.844 35.6308C444.531 35.6308 445.928 36.207 447.036 37.3633C448.416 38.8036 449.109 40.9459 449.109 43.7778V55.1504Z" fill="white"/>
<path d="M471.361 44.6829C471.361 45.4456 471.306 46.0867 471.209 46.6101H458.986C459.041 48.5007 459.624 49.9411 460.756 50.9392C461.79 51.8318 463.124 52.2781 464.758 52.2781C466.566 52.2781 468.215 51.9778 469.7 51.3733L470.338 54.327C468.6 55.1141 466.554 55.5076 464.186 55.5076C461.347 55.5076 459.111 54.6353 457.493 52.8907C455.867 51.1461 455.062 48.805 455.062 45.8676C455.062 42.9829 455.813 40.581 457.326 38.6659C458.905 36.6211 461.04 35.5986 463.735 35.5986C466.371 35.5986 468.374 36.6211 469.727 38.6659C470.82 40.2888 471.361 42.2972 471.361 44.6829ZM467.472 43.5833C467.503 42.3215 467.235 41.2342 466.682 40.3172C465.975 39.1366 464.897 38.5442 463.439 38.5442C462.109 38.5442 461.024 39.1203 460.196 40.2767C459.519 41.1977 459.119 42.2972 458.986 43.5833H467.472Z" fill="white"/>
</svg>
