<svg width="103" height="101" viewBox="0 0 103 101" fill="none" xmlns="http://www.w3.org/2000/svg">
<path d="M51.5813 100.283H51.3583C23.4769 100.283 0.792969 77.9381 0.792969 50.4738V50.2542C0.792969 22.7899 23.4769 0.445312 51.3583 0.445312H51.5813C79.4628 0.445312 102.147 22.7899 102.147 50.2542V50.4738C102.147 77.9381 79.4628 100.283 51.5813 100.283ZM51.3583 3.8247C25.3672 3.8247 4.22369 24.6519 4.22369 50.2542V50.4738C4.22369 76.0761 25.3672 96.9032 51.3583 96.9032H51.5813C77.5724 96.9032 98.716 76.0761 98.716 50.4738V50.2542C98.716 24.6519 77.5724 3.8247 51.5813 3.8247H51.3583Z" fill="#292D32"/>
<path d="M58.297 39.1828V49.6893H71.4915L69.4022 63.8422H58.297V96.4499C56.0704 96.7541 53.7924 96.9129 51.4801 96.9129C48.811 96.9129 46.19 96.7034 43.6375 96.2978V63.8422H31.4688V49.6893H43.6375V36.8341C43.6375 28.8588 50.2005 22.3906 58.3004 22.3906V22.3974C58.3244 22.3974 58.345 22.3906 58.369 22.3906H71.4949V34.6308H62.9181C60.3691 34.6308 58.3004 36.6685 58.3004 39.1794L58.297 39.1828Z" fill="#292D32"/>
</svg>
