<svg width="516" height="161" viewBox="0 0 516 161" fill="none" xmlns="http://www.w3.org/2000/svg">
<path d="M495.982 160.296H19.0762C8.58907 160.296 0 151.323 0 140.367V20.7894C0 9.83317 8.58907 0.859875 19.0762 0.859875H495.982C506.469 0.859875 515.058 9.83317 515.058 20.7894V140.367C515.058 151.323 506.469 160.296 495.982 160.296Z" fill="black"/>
<path d="M495.982 4.05358C504.814 4.05358 512.001 11.5621 512.001 20.7894V140.367C512.001 149.594 504.814 157.103 495.982 157.103H19.0762C10.2439 157.103 3.05696 149.594 3.05696 140.367V20.7894C3.05696 11.5621 10.2439 4.05358 19.0762 4.05358H495.982ZM495.982 0.859875H19.0762C8.58907 0.859875 0 9.83317 0 20.7894V140.367C0 151.323 8.58907 160.296 19.0762 160.296H495.982C506.469 160.296 515.058 151.323 515.058 140.367V20.7894C515.058 9.83317 506.469 0.859875 495.982 0.859875Z" fill="#A6A6A6"/>
<path d="M180.905 41.6876C180.905 45.0159 179.951 47.6814 178.072 49.6694C175.912 52.0261 173.098 53.2119 169.65 53.2119C166.355 53.2119 163.541 52.0061 161.233 49.6295C158.92 47.2181 157.766 44.2585 157.766 40.7161C157.766 37.1736 158.92 34.214 161.233 31.8225C163.541 29.426 166.355 28.2202 169.65 28.2202C171.291 28.2202 172.855 28.574 174.348 29.2316C175.836 29.8943 177.047 30.7911 177.924 31.8972L175.931 33.9998C174.4 32.1115 172.316 31.1798 169.65 31.1798C167.247 31.1798 165.162 32.0567 163.393 33.8254C161.643 35.5991 160.765 37.896 160.765 40.7161C160.765 43.5361 161.643 45.8529 163.393 47.6266C165.162 49.3754 167.247 50.2723 169.65 50.2723C172.202 50.2723 174.348 49.3754 176.041 47.6067C177.157 46.4358 177.791 44.8215 177.958 42.7588H169.65V39.879H180.733C180.867 40.5018 180.905 41.1047 180.905 41.6876Z" fill="white" stroke="white" stroke-width="0.458459" stroke-miterlimit="10"/>
<path d="M198.491 31.7051H188.08V39.2784H197.466V42.1582H188.08V49.7314H198.491V52.6661H185.133V28.7705H198.491V31.7051Z" fill="white" stroke="white" stroke-width="0.458459" stroke-miterlimit="10"/>
<path d="M210.903 52.6661H207.956V31.7051H201.57V28.7705H217.294V31.7051H210.903V52.6661Z" fill="white" stroke="white" stroke-width="0.458459" stroke-miterlimit="10"/>
<path d="M228.672 52.6661V28.7705H231.614V52.6661H228.672Z" fill="white" stroke="white" stroke-width="0.458459" stroke-miterlimit="10"/>
<path d="M244.653 52.6661H241.73V31.7051H235.32V28.7705H251.063V31.7051H244.653V52.6661Z" fill="white" stroke="white" stroke-width="0.458459" stroke-miterlimit="10"/>
<path d="M280.838 49.5897C278.583 52.0061 275.788 53.2119 272.454 53.2119C269.102 53.2119 266.307 52.0061 264.051 49.5897C261.8 47.1782 260.68 44.2187 260.68 40.7161C260.68 37.2134 261.8 34.2539 264.051 31.8424C266.307 29.426 269.102 28.2202 272.454 28.2202C275.769 28.2202 278.564 29.426 280.819 31.8623C283.089 34.2937 284.21 37.2334 284.21 40.7161C284.21 44.2187 283.089 47.1782 280.838 49.5897ZM266.231 47.5868C267.929 49.3754 269.994 50.2723 272.454 50.2723C274.896 50.2723 276.98 49.3754 278.659 47.5868C280.352 45.7981 281.21 43.5012 281.21 40.7161C281.21 37.9309 280.352 35.634 278.659 33.8453C276.98 32.0567 274.896 31.1598 272.454 31.1598C269.994 31.1598 267.929 32.0567 266.231 33.8453C264.538 35.634 263.679 37.9309 263.679 40.7161C263.679 43.5012 264.538 45.7981 266.231 47.5868Z" fill="white" stroke="white" stroke-width="0.458459" stroke-miterlimit="10"/>
<path d="M288.336 52.6661V28.7705H291.913L303.034 47.3548H303.163L303.034 42.7611V28.7705H305.977V52.6661H302.905L291.259 33.165H291.131L291.259 37.7787V52.6661H288.336Z" fill="white" stroke="white" stroke-width="0.458459" stroke-miterlimit="10"/>
<path d="M259.952 87.5636C250.991 87.5636 243.671 94.6884 243.671 104.519C243.671 114.269 250.991 121.469 259.952 121.469C268.932 121.469 276.253 114.269 276.253 104.519C276.253 94.6884 268.932 87.5636 259.952 87.5636ZM259.952 114.792C255.035 114.792 250.805 110.552 250.805 104.519C250.805 98.4053 255.035 94.24 259.952 94.24C264.869 94.24 269.118 98.4053 269.118 104.519C269.118 110.552 264.869 114.792 259.952 114.792ZM224.427 87.5636C215.447 87.5636 208.146 94.6884 208.146 104.519C208.146 114.269 215.447 121.469 224.427 121.469C233.403 121.469 240.709 114.269 240.709 104.519C240.709 94.6884 233.403 87.5636 224.427 87.5636ZM224.427 114.792C219.506 114.792 215.261 110.552 215.261 104.519C215.261 98.4053 219.506 94.24 224.427 94.24C229.344 94.24 233.574 98.4053 233.574 104.519C233.574 110.552 229.344 114.792 224.427 114.792ZM182.155 92.7602V99.9647H198.622C198.14 103.991 196.853 106.95 194.878 109.013C192.475 111.504 188.731 114.269 182.155 114.269C172.02 114.269 164.085 105.724 164.085 95.1368C164.085 84.5492 172.02 76.0044 182.155 76.0044C187.634 76.0044 191.621 78.2415 194.564 81.1413L199.423 76.0642C195.308 71.9587 189.833 68.8049 182.155 68.8049C168.258 68.8049 156.578 80.6181 156.578 95.1368C156.578 109.655 168.258 121.469 182.155 121.469C189.666 121.469 195.308 118.898 199.743 114.075C204.288 109.327 205.704 102.65 205.704 97.2593C205.704 95.5852 205.571 94.0457 205.332 92.7602H182.155ZM355.014 98.3455C353.674 94.5539 349.539 87.5636 341.117 87.5636C332.771 87.5636 325.822 94.4343 325.822 104.519C325.822 114.015 332.699 121.469 341.918 121.469C349.372 121.469 353.674 116.721 355.443 113.955L349.911 110.104C348.065 112.924 345.552 114.792 341.918 114.792C338.308 114.792 335.718 113.063 334.058 109.655L355.762 100.274L355.014 98.3455ZM332.885 103.991C332.699 97.4536 337.745 94.1055 341.36 94.1055C344.193 94.1055 346.596 95.5852 347.397 97.7027L332.885 103.991ZM315.245 120.437H322.379V70.6135H315.245V120.437ZM303.56 91.3402H303.322C301.719 89.3572 298.663 87.5636 294.79 87.5636C286.664 87.5636 279.233 95.0172 279.233 104.573C279.233 114.075 286.664 121.469 294.79 121.469C298.663 121.469 301.719 119.66 303.322 117.617H303.56V120.049C303.56 126.531 300.246 130.014 294.9 130.014C290.541 130.014 287.837 126.725 286.721 123.96L280.516 126.665C282.305 131.159 287.04 136.69 294.9 136.69C303.265 136.69 310.323 131.548 310.323 119.037V88.5949H303.56V91.3402ZM295.4 114.792C290.484 114.792 286.368 110.493 286.368 104.573C286.368 98.5996 290.484 94.24 295.4 94.24C300.246 94.24 304.066 98.5996 304.066 104.573C304.066 110.493 300.246 114.792 295.4 114.792ZM388.416 70.6135H371.352V120.437H378.468V101.559H388.416C396.318 101.559 404.068 95.5852 404.068 86.0838C404.068 76.5874 396.299 70.6135 388.416 70.6135ZM388.602 94.6286H378.468V77.544H388.602C393.915 77.544 396.948 82.1527 396.948 86.0838C396.948 89.9402 393.915 94.6286 388.602 94.6286ZM432.587 87.4689C427.446 87.4689 422.1 89.8405 419.901 95.0969L426.216 97.8622C427.575 95.0969 430.074 94.2001 432.716 94.2001C436.407 94.2001 440.151 96.5169 440.208 100.607V101.131C438.92 100.353 436.164 99.2024 432.773 99.2024C425.972 99.2024 419.043 103.114 419.043 110.413C419.043 117.089 424.613 121.389 430.875 121.389C435.663 121.389 438.305 119.132 439.965 116.506H440.208V120.358H447.08V101.245C447.08 92.4114 440.766 87.4689 432.587 87.4689ZM431.729 114.772C429.401 114.772 426.158 113.567 426.158 110.552C426.158 106.696 430.203 105.216 433.703 105.216C436.836 105.216 438.305 105.939 440.208 106.89C439.65 111.504 435.849 114.772 431.729 114.772ZM472.118 88.56L463.939 110.159H463.696L455.24 88.56H447.567L460.271 118.743L453.022 135.539H460.457L480.034 88.56H472.118ZM407.979 120.437H415.113V70.6135H407.979V120.437Z" fill="white"/>
<path d="M39.8162 30.9058C38.6955 32.1314 38.0469 34.0397 38.0469 36.511V124.659C38.0469 127.131 38.6955 129.039 39.8162 130.265L40.0928 130.534L87.3732 81.1582V79.9923L40.0928 30.6168L39.8162 30.9058Z" fill="url(#paint0_linear_162_2669)"/>
<path d="M103.118 97.6265L87.375 81.1597V79.9938L103.137 63.527L103.49 63.7412L122.156 74.837C127.483 77.9859 127.483 83.1676 122.156 86.3364L103.49 97.4122L103.118 97.6265Z" fill="url(#paint1_linear_162_2669)"/>
<path d="M103.484 97.4116L87.3695 80.5761L39.8125 130.265C41.5818 132.209 44.4671 132.443 47.7482 130.5L103.484 97.4116Z" fill="url(#paint2_linear_162_2669)"/>
<path d="M103.484 63.7426L47.7482 30.6546C44.4671 28.7314 41.5818 28.9655 39.8125 30.9087L87.3695 80.5781L103.484 63.7426Z" fill="url(#paint3_linear_162_2669)"/>
<defs>
<linearGradient id="paint0_linear_162_2669" x1="83.1753" y1="125.577" x2="16.3461" y2="61.6098" gradientUnits="userSpaceOnUse">
<stop stop-color="#00A0FF"/>
<stop offset="0.0066" stop-color="#00A1FF"/>
<stop offset="0.2601" stop-color="#00BEFF"/>
<stop offset="0.5122" stop-color="#00D2FF"/>
<stop offset="0.7604" stop-color="#00DFFF"/>
<stop offset="1" stop-color="#00E3FF"/>
</linearGradient>
<linearGradient id="paint1_linear_162_2669" x1="129.092" y1="80.5711" x2="36.7753" y2="80.5711" gradientUnits="userSpaceOnUse">
<stop stop-color="#FFE000"/>
<stop offset="0.4087" stop-color="#FFBD00"/>
<stop offset="0.7754" stop-color="#FFA500"/>
<stop offset="1" stop-color="#FF9C00"/>
</linearGradient>
<linearGradient id="paint2_linear_162_2669" x1="94.7215" y1="71.4241" x2="4.09568" y2="-15.3213" gradientUnits="userSpaceOnUse">
<stop stop-color="#FF3A44"/>
<stop offset="1" stop-color="#C31162"/>
</linearGradient>
<linearGradient id="paint3_linear_162_2669" x1="27.8414" y1="159.594" x2="68.3099" y2="120.859" gradientUnits="userSpaceOnUse">
<stop stop-color="#32A071"/>
<stop offset="0.0685" stop-color="#2DA771"/>
<stop offset="0.4762" stop-color="#15CF74"/>
<stop offset="0.8009" stop-color="#06E775"/>
<stop offset="1" stop-color="#00F076"/>
</linearGradient>
</defs>
</svg>
