<svg width="102" height="101" viewBox="0 0 102 101" fill="none" xmlns="http://www.w3.org/2000/svg">
<path d="M51.0813 100.283H50.8583C22.9769 100.283 0.292969 77.9381 0.292969 50.4738V50.2541C0.292969 22.7898 22.9769 0.445312 50.8583 0.445312H51.0813C78.9628 0.445312 101.647 22.7898 101.647 50.2541V50.4738C101.647 77.9381 78.9628 100.283 51.0813 100.283ZM50.8583 3.8247C24.8672 3.8247 3.72369 24.6518 3.72369 50.2541V50.4738C3.72369 76.0761 24.8672 96.9032 50.8583 96.9032H51.0813C77.0724 96.9032 98.216 76.0761 98.216 50.4738V50.2541C98.216 24.6518 77.0724 3.8247 51.0813 3.8247H50.8583Z" fill="#292D32"/>
<path d="M66.1392 21.75H35.8391C27.4682 21.75 20.6582 28.4581 20.6582 36.7038V64.0092C20.6582 72.2549 27.4682 78.963 35.8391 78.963H66.1392C74.5102 78.963 81.3202 72.2549 81.3202 64.0092V36.7038C81.3202 28.4581 74.5102 21.75 66.1392 21.75ZM26.0136 36.7038C26.0136 31.3677 30.422 27.0252 35.8391 27.0252H66.1392C71.5563 27.0252 75.9648 31.3677 75.9648 36.7038V64.0092C75.9648 69.3453 71.5563 73.6878 66.1392 73.6878H35.8391C30.422 73.6878 26.0136 69.3453 26.0136 64.0092V36.7038Z" fill="#292D32"/>
<path d="M50.9763 64.28C58.7606 64.28 65.0971 58.0417 65.0971 50.3705C65.0971 42.6993 58.764 36.4609 50.9763 36.4609C43.1886 36.4609 36.8555 42.6993 36.8555 50.3705C36.8555 58.0417 43.1886 64.28 50.9763 64.28ZM50.9763 41.7395C55.8102 41.7395 59.7418 45.6123 59.7418 50.3739C59.7418 55.1354 55.8102 59.0082 50.9763 59.0082C46.1424 59.0082 42.2108 55.1354 42.2108 50.3739C42.2108 45.6123 46.1424 41.7395 50.9763 41.7395Z" fill="#292D32"/>
<path d="M66.4179 38.683C68.5141 38.683 70.2226 37.0035 70.2226 34.9353C70.2226 32.8671 68.5175 31.1875 66.4179 31.1875C64.3183 31.1875 62.6133 32.8671 62.6133 34.9353C62.6133 37.0035 64.3183 38.683 66.4179 38.683Z" fill="#292D32"/>
</svg>
