<svg width="104" height="103" viewBox="0 0 104 103" fill="none" xmlns="http://www.w3.org/2000/svg">
<path d="M52.2298 102.257H52.0026C23.585 102.257 0.464844 79.483 0.464844 51.4905V51.2667C0.464844 23.2743 23.585 0.5 52.0026 0.5H52.2298C80.6474 0.5 103.768 23.2743 103.768 51.2667V51.4905C103.768 79.483 80.6474 102.257 52.2298 102.257ZM52.0026 3.94437C25.5117 3.94437 3.96153 25.1721 3.96153 51.2667V51.4905C3.96153 77.5851 25.5117 98.8128 52.0026 98.8128H52.2298C78.7208 98.8128 100.271 77.5851 100.271 51.4905V51.2667C100.271 25.1721 78.7208 3.94437 52.2298 3.94437H52.0026Z" fill="#292D32"/>
<path d="M26.0096 34.9197C24.6949 33.7176 24.041 32.2297 24.041 30.4593C24.041 28.6888 24.6984 27.1354 26.0096 25.9298C27.3244 24.7278 29.0168 24.125 31.0903 24.125C33.1638 24.125 34.7898 24.7278 36.1011 25.9298C37.4159 27.1319 38.0697 28.6441 38.0697 30.4593C38.0697 32.2744 37.4124 33.7176 36.1011 34.9197C34.7863 36.1218 33.1184 36.7246 31.0903 36.7246C29.0622 36.7246 27.3244 36.1218 26.0096 34.9197ZM36.9648 41.8153V78.6702H25.1424V41.8153H36.9648Z" fill="#292D32"/>
<path d="M76.3192 45.4536C78.8963 48.2091 80.1831 51.9911 80.1831 56.8063V78.0167H68.9553V58.3011C68.9553 55.8728 68.3154 53.9853 67.0391 52.642C65.7628 51.2987 64.0424 50.6236 61.8885 50.6236C59.7345 50.6236 58.0141 51.2953 56.7378 52.642C55.4615 53.9853 54.8216 55.8728 54.8216 58.3011V78.0167H43.5273V41.7096H54.8216V46.5248C55.965 44.9197 57.5071 43.6522 59.4443 42.7187C61.3815 41.7853 63.5599 41.3203 65.9831 41.3203C70.298 41.3203 73.7457 42.6981 76.3192 45.4536Z" fill="#292D32"/>
</svg>
