<?xml version="1.0" encoding="utf-8"?>
<!-- Generator: Adobe Illustrator 28.1.0, SVG Export Plug-In . SVG Version: 6.00 Build 0)  -->
<svg version="1.1" id="Layer_1" xmlns="http://www.w3.org/2000/svg" xmlns:xlink="http://www.w3.org/1999/xlink" x="0px" y="0px"
	 viewBox="0 0 2416 827" style="enable-background:new 0 0 2416 827;" xml:space="preserve">
<style type="text/css">
	.st0{fill:#C2F232;}
	.st1{fill:#113140;}
	.st2{fill:#FFFFFF;}
</style>
<circle class="st0" cx="413.5" cy="413.5" r="413.5"/>
<path class="st1" d="M318.4,172c123-1.2,223.2,49.9,223.8,114.2c0.6,64.2-98.6,117.3-221.6,118.5s95.3-57.6,94.7-121.9
	C414.7,218.6,195.4,173.2,318.4,172z"/>
<path class="st1" d="M320.7,407.2c123-1.2,223.2,53.7,223.9,122.6c0.7,68.9-98.5,125.7-221.5,126.9c-123,1.2,95.3-61.7,94.6-130.6
	C417,457.2,197.7,408.4,320.7,407.2z"/>
<path class="st2" d="M1074,390.9c11.8,5.3,21,12.9,27.7,22.7c6.8,9.9,10.2,21,10.2,33.5c0,19.1-7.7,34.8-23.2,47.1
	c-15.4,12.3-35.2,18.4-59.6,18.4c-15.9,0-31.1-2.8-45.5-8.4s-26.5-13.5-36.2-23.5l22.6-28.3c6.9,7.2,15.4,12.8,25.4,16.9
	c10.1,3.9,20.5,5.9,31.2,5.9c13.3,0,24.3-3.1,32.7-9.4c8.6-6.4,12.9-14.4,12.9-24.2s-4.1-17.8-12.4-24c-8.2-6.4-18.6-9.5-31.3-9.5
	h-32.7v-33.5h32.7c11,0,20.1-2.7,27.4-7.9c7.2-5.3,10.8-12.1,10.8-20.3c0-8.3-3.9-15.1-11.8-20.5c-7.8-5.4-17.9-8.1-30.2-8.1
	c-9.2,0-18.2,1.6-26.9,4.9c-8.6,3.3-15.7,7.8-21.3,13.7l-20.8-28.1c8.8-8.8,19.8-15.6,32.9-20.5c13.1-5,26.8-7.5,41-7.5
	c22.6,0,41,5.7,55.3,17.2c14.3,11.3,21.5,25.8,21.5,43.4c0,10.8-2.9,20.6-8.6,29.4C1091.9,378.9,1084,385.9,1074,390.9z
	 M1194.9,284.1h27.3v224.6h-38.5V330.1l-40.1,22.4l-16.5-31L1194.9,284.1z M1354.1,365.8c20.2,0,37.1,6.9,50.5,20.7
	c13.6,13.7,20.3,30.5,20.3,50.6c0,21.7-7.9,39.8-23.8,54.2c-15.9,14.3-35.9,21.5-60.1,21.5c-25.5,0-46-8.1-61.5-24.3
	c-15.5-16.3-23.2-38.2-23.2-65.7c0-23.2,5.6-44.9,16.8-65c11.3-20.1,27.6-37.1,48.7-50.9c21.2-13.8,45.5-22.7,73-26.7l7.5,36.2
	c-23.6,4.2-43.8,12.3-60.4,24.2c-16.6,11.8-28.5,25.6-35.6,41.5C1318.8,371.2,1334.8,365.8,1354.1,365.8z M1341.3,475.2
	c12.6,0,23.1-3.5,31.3-10.5c8.4-7.1,12.6-16.1,12.6-26.9c0-10.4-4.1-19.1-12.2-26.1c-8.1-7-18.3-10.5-30.7-10.5
	c-12.2,0-23,3.1-32.3,9.2c-9.3,6.1-14,14.8-14,25.9c0,11.3,4.2,20.7,12.5,28C1317,471.6,1327.9,475.2,1341.3,475.2z M1473.3,511.3
	c-7.3,0-13.5-2.4-18.6-7.3c-5-4.9-7.5-11-7.5-18.3c0-7.3,2.5-13.5,7.5-18.4c5.1-5.1,11.3-7.6,18.6-7.6c7.4,0,13.6,2.5,18.6,7.6
	c5,5,7.5,11.1,7.5,18.4c0,7.3-2.5,13.4-7.5,18.3C1486.9,508.8,1480.7,511.3,1473.3,511.3z M1640.4,510.3c16.1,0,29.5,4.2,40.2,12.6
	c10.7,8.5,17.3,20,19.7,34.7l-37.8,10.2c-0.4-6.7-3.3-12-8.6-16.1c-5.3-3.9-12.1-5.9-20.3-5.9h-57.1c-14.7,0-26.6-3.9-35.8-11.8
	c-9.1-7.7-13.7-17.9-13.7-30.5c0-8.3,2-16,5.9-23.2c3.9-7.3,9.2-12.9,15.9-16.9c-14.9-13.9-22.4-31.2-22.4-52
	c0-20.7,7.4-37.9,22.1-51.8c14.7-13.9,33.1-20.8,55-20.8c13.6,0,26.2,2.9,37.8,8.7c2.1-8.9,6.8-15.9,14-21
	c7.3-5.1,16.2-7.6,26.7-7.6h13.3v33.9h-11.4c-5.1,0-9.4,1.3-12.9,4c-3.4,2.5-5.3,6-5.7,10.3c10.3,12.8,15.4,27.6,15.4,44.4
	c0,20.6-7.4,37.8-22.3,51.7c-14.8,13.9-33.2,20.8-55,20.8c-11.3,0-21.6-1.8-30.8-5.4c-5.9,3.9-8.9,9.2-8.9,15.9
	c0,4.7,1.8,8.5,5.4,11.4c3.6,3,8.3,4.5,14.2,4.5H1640.4z M1603.5,373.3c-11.3,0-20.8,3.7-28.5,11c-7.5,7.2-11.3,16.3-11.3,27.2
	c0,10.8,3.8,19.9,11.3,27.2c7.6,7.2,17.1,10.8,28.5,10.8c11.2,0,20.6-3.7,28.1-11c7.5-7.3,11.3-16.3,11.3-27
	c0-10.9-3.8-20-11.3-27.2C1624.1,377,1614.7,373.3,1603.5,373.3z M1806.8,340.1h6.2v37.5h-6.2c-16.1,0-28.8,4.6-38,13.7
	c-9.1,9-13.7,21.2-13.7,36.7v80.8h-36.6v-166h36.6v24.3C1768.4,349.1,1785.6,340.1,1806.8,340.1z M1913.2,512.7
	c-25.3,0-46.5-8.3-63.4-25c-17-16.6-25.4-37.3-25.4-62c0-24.7,8.5-45.4,25.4-62c17-16.6,38.1-25,63.4-25c16.5,0,31.6,3.8,45.2,11.4
	c13.7,7.5,24.4,18,32.1,31.3c7.7,13.2,11.6,28,11.6,44.2s-3.9,31-11.6,44.4c-7.7,13.2-18.4,23.7-32.1,31.3
	C1944.7,508.9,1929.7,512.7,1913.2,512.7z M1876.4,462.6c9.8,9.9,22.1,14.8,36.7,14.8c14.6,0,26.8-4.9,36.4-14.8
	c9.8-10,14.6-22.3,14.6-36.9c0-14.7-4.9-27-14.6-36.9c-9.6-10-21.8-14.9-36.4-14.9c-14.6,0-26.9,5-36.7,14.9
	c-9.9,10-14.8,22.3-14.8,36.9S1866.6,452.7,1876.4,462.6z M2109.2,512.7c-23.1,0-41.7-6.4-55.8-19.2c-14-12.8-21-29.8-21-50.9v-99.8
	h36.4v95.1c0,11.9,3.7,21.5,11.1,28.8c7.4,7.2,17.2,10.8,29.2,10.8c12.1,0,21.8-3.6,29.1-10.8c7.3-7.2,11-16.8,11-28.8v-95.1h36.4
	v99.8c0,21.1-7,38-21,50.9C2150.6,506.3,2132.1,512.7,2109.2,512.7z M2321.1,338.8c15.3,0,29.1,3.8,41.6,11.4
	c12.5,7.5,22.3,18,29.4,31.3c7.1,13.2,10.6,28,10.6,44.2s-3.6,31-10.6,44.4c-7.1,13.2-16.9,23.7-29.4,31.3
	c-12.5,7.5-26.4,11.3-41.6,11.3c-12.1,0-23.1-2.4-33.1-7.3c-10-4.9-18.4-11.8-25.4-20.8v86H2226V342.8h36.6v24
	c6.9-8.9,15.3-15.8,25.3-20.7C2297.9,341.2,2309,338.8,2321.1,338.8z M2277.2,462.6c9.9,9.9,22.1,14.8,36.7,14.8
	c14.6,0,26.8-4.9,36.6-14.8c9.8-10,14.6-22.3,14.6-36.9s-4.9-26.9-14.6-36.9c-9.8-10-21.9-14.9-36.6-14.9c-14.6,0-26.9,5-36.7,14.9
	c-9.8,10-14.6,22.3-14.6,36.9S2267.4,452.7,2277.2,462.6z"/>
</svg>
