<svg width="2416" height="827" viewBox="0 0 2416 827" fill="none" xmlns="http://www.w3.org/2000/svg">
<circle cx="413.469" cy="413.469" r="413.469" fill="#C2F232"/>
<path d="M318.368 172.042C441.352 170.856 541.553 221.97 542.172 286.207C542.792 350.445 443.595 403.481 320.611 404.667C197.627 405.853 415.914 347.041 415.294 282.803C414.675 218.566 195.384 173.228 318.368 172.042Z" fill="#113140"/>
<path d="M320.704 407.239C443.688 406.053 543.925 460.949 544.59 529.852C545.254 598.755 446.094 655.574 323.11 656.759C200.126 657.945 418.373 595.015 417.709 526.112C417.044 457.209 197.72 408.425 320.704 407.239Z" fill="#113140"/>
<path d="M1073.96 390.939C1085.72 396.238 1094.94 403.816 1101.62 413.672C1108.4 423.528 1111.79 434.708 1111.79 447.214C1111.79 466.29 1104.06 481.975 1088.58 494.268C1073.22 506.562 1053.35 512.709 1028.97 512.709C1013.07 512.709 997.918 509.9 983.505 504.283C969.092 498.666 957.011 490.824 947.261 480.756L969.834 452.46C976.723 459.666 985.201 465.283 995.269 469.31C1005.34 473.232 1015.72 475.192 1026.43 475.192C1039.78 475.192 1050.7 472.066 1059.17 465.813C1067.76 459.454 1072.05 451.4 1072.05 441.65C1072.05 431.9 1067.92 423.899 1059.65 417.646C1051.49 411.287 1041.05 408.108 1028.33 408.108H995.587V374.566H1028.33C1039.36 374.566 1048.47 371.916 1055.68 366.617C1062.88 361.318 1066.49 354.536 1066.49 346.269C1066.49 338.003 1062.57 331.167 1054.72 325.762C1046.88 320.358 1036.81 317.655 1024.52 317.655C1015.3 317.655 1006.34 319.298 997.653 322.583C989.069 325.868 981.968 330.426 976.352 336.254L955.527 308.117C964.323 299.321 975.292 292.485 988.433 287.61C1001.57 282.629 1015.25 280.139 1029.45 280.139C1052.02 280.139 1070.46 285.862 1084.77 297.307C1099.07 308.647 1106.23 323.113 1106.23 340.705C1106.23 351.515 1103.37 361.318 1097.64 370.114C1091.92 378.911 1084.03 385.852 1073.96 390.939ZM1194.93 284.113H1222.27V508.734H1183.8V330.055L1143.74 352.469L1127.21 321.47L1194.93 284.113ZM1354.06 365.822C1374.3 365.822 1391.15 372.711 1404.61 386.488C1418.18 400.159 1424.96 417.01 1424.96 437.04C1424.96 458.766 1417.01 476.835 1401.11 491.248C1385.22 505.555 1365.19 512.709 1341.02 512.709C1315.48 512.709 1294.98 504.601 1279.5 488.386C1264.03 472.066 1256.29 450.181 1256.29 422.733C1256.29 399.524 1261.91 377.851 1273.14 357.715C1284.48 337.579 1300.7 320.623 1321.79 306.845C1342.98 293.068 1367.31 284.166 1394.75 280.139L1402.23 316.383C1378.59 320.623 1358.46 328.677 1341.82 340.546C1325.18 352.31 1313.31 366.14 1306.21 382.037C1318.82 371.227 1334.77 365.822 1354.06 365.822ZM1341.34 475.192C1353.95 475.192 1364.39 471.695 1372.66 464.7C1381.03 457.6 1385.22 448.645 1385.22 437.835C1385.22 427.449 1381.14 418.759 1372.98 411.764C1364.92 404.769 1354.69 401.272 1342.3 401.272C1330.11 401.272 1319.35 404.346 1310.02 410.492C1300.7 416.639 1296.04 425.276 1296.04 436.404C1296.04 447.744 1300.22 457.07 1308.59 464.382C1316.97 471.589 1327.88 475.192 1341.34 475.192ZM1473.28 511.278C1465.97 511.278 1459.77 508.84 1454.69 503.965C1449.7 499.09 1447.21 492.997 1447.21 485.684C1447.21 478.372 1449.7 472.225 1454.69 467.244C1459.77 462.157 1465.97 459.613 1473.28 459.613C1480.7 459.613 1486.9 462.157 1491.88 467.244C1496.87 472.225 1499.36 478.372 1499.36 485.684C1499.36 492.997 1496.87 499.09 1491.88 503.965C1486.9 508.84 1480.7 511.278 1473.28 511.278ZM1640.36 510.324C1656.47 510.324 1669.88 514.51 1680.58 522.883C1691.28 531.361 1697.85 542.912 1700.29 557.537L1662.46 567.711C1662.03 561.035 1659.17 555.683 1653.87 551.656C1648.57 547.734 1641.79 545.774 1633.52 545.774H1576.45C1561.72 545.774 1549.8 541.853 1540.69 534.01C1531.57 526.274 1527.02 516.1 1527.02 503.488C1527.02 495.222 1528.98 487.486 1532.9 480.279C1536.82 472.967 1542.12 467.35 1548.79 463.429C1533.85 449.545 1526.38 432.218 1526.38 411.446C1526.38 390.78 1533.75 373.506 1548.48 359.623C1563.21 345.739 1581.54 338.798 1603.48 338.798C1617.04 338.798 1629.66 341.712 1641.31 347.541C1643.43 338.639 1648.1 331.644 1655.3 326.557C1662.62 321.47 1671.52 318.927 1682.01 318.927H1695.36V352.787H1683.92C1678.83 352.787 1674.54 354.112 1671.04 356.761C1667.65 359.305 1665.74 362.749 1665.32 367.094C1675.6 379.917 1680.74 394.701 1680.74 411.446C1680.74 432.006 1673.32 449.227 1658.48 463.111C1643.65 476.994 1625.31 483.935 1603.48 483.935C1592.14 483.935 1581.86 482.134 1572.64 478.53C1566.7 482.452 1563.74 487.751 1563.74 494.427C1563.74 499.09 1565.54 502.906 1569.14 505.873C1572.75 508.84 1577.46 510.324 1583.29 510.324H1640.36ZM1603.48 373.294C1592.14 373.294 1582.65 376.95 1575.02 384.263C1567.5 391.469 1563.74 400.53 1563.74 411.446C1563.74 422.256 1567.5 431.317 1575.02 438.63C1582.65 445.836 1592.14 449.439 1603.48 449.439C1614.71 449.439 1624.09 445.783 1631.62 438.471C1639.14 431.158 1642.9 422.15 1642.9 411.446C1642.9 400.53 1639.14 391.469 1631.62 384.263C1624.09 376.95 1614.71 373.294 1603.48 373.294ZM1806.8 340.07H1813V377.586H1806.8C1790.69 377.586 1778.03 382.143 1768.81 391.257C1759.69 400.265 1755.13 412.506 1755.13 427.979V508.734H1718.57V342.772H1755.13V367.094C1768.38 349.078 1785.6 340.07 1806.8 340.07ZM1913.15 512.709C1887.82 512.709 1866.68 504.389 1849.72 487.751C1832.76 471.112 1824.29 450.446 1824.29 425.753C1824.29 401.06 1832.76 380.394 1849.72 363.756C1866.68 347.117 1887.82 338.798 1913.15 338.798C1929.68 338.798 1944.73 342.613 1958.3 350.244C1971.97 357.768 1982.67 368.207 1990.41 381.56C1998.14 394.807 2002.01 409.538 2002.01 425.753C2002.01 441.968 1998.14 456.752 1990.41 470.105C1982.67 483.353 1971.97 493.791 1958.3 501.422C1944.73 508.946 1929.68 512.709 1913.15 512.709ZM1876.43 462.634C1886.28 472.49 1898.52 477.418 1913.15 477.418C1927.77 477.418 1939.91 472.49 1949.55 462.634C1959.3 452.672 1964.18 440.378 1964.18 425.753C1964.18 411.022 1959.3 398.729 1949.55 388.873C1939.91 378.911 1927.77 373.93 1913.15 373.93C1898.52 373.93 1886.28 378.911 1876.43 388.873C1866.57 398.835 1861.64 411.128 1861.64 425.753C1861.64 440.378 1866.57 452.672 1876.43 462.634ZM2109.16 512.709C2086.05 512.709 2067.45 506.297 2053.36 493.473C2039.37 480.65 2032.37 463.694 2032.37 442.604V342.772H2068.78V437.835C2068.78 449.704 2072.49 459.295 2079.91 466.608C2087.32 473.814 2097.07 477.418 2109.16 477.418C2121.24 477.418 2130.93 473.814 2138.25 466.608C2145.56 459.401 2149.22 449.81 2149.22 437.835V342.772H2185.62V442.604C2185.62 463.694 2178.62 480.65 2164.64 493.473C2150.65 506.297 2132.15 512.709 2109.16 512.709ZM2321.06 338.798C2336.32 338.798 2350.2 342.613 2362.71 350.244C2375.22 357.768 2385.02 368.207 2392.12 381.56C2399.22 394.807 2402.77 409.538 2402.77 425.753C2402.77 441.968 2399.22 456.752 2392.12 470.105C2385.02 483.353 2375.22 493.791 2362.71 501.422C2350.2 508.946 2336.32 512.709 2321.06 512.709C2308.98 512.709 2297.96 510.271 2287.99 505.396C2278.03 500.521 2269.55 493.579 2262.56 484.571V570.573H2226V342.772H2262.56V366.776C2269.45 357.874 2277.87 350.985 2287.84 346.11C2297.9 341.235 2308.98 338.798 2321.06 338.798ZM2277.19 462.634C2287.04 472.49 2299.28 477.418 2313.91 477.418C2328.53 477.418 2340.72 472.49 2350.47 462.634C2360.22 452.672 2365.09 440.378 2365.09 425.753C2365.09 411.128 2360.22 398.835 2350.47 388.873C2340.72 378.911 2328.53 373.93 2313.91 373.93C2299.28 373.93 2287.04 378.911 2277.19 388.873C2267.43 398.835 2262.56 411.128 2262.56 425.753C2262.56 440.378 2267.43 452.672 2277.19 462.634Z" fill="black"/>
</svg>
