<svg width="198" height="40" viewBox="0 0 198 40" fill="none" xmlns="http://www.w3.org/2000/svg">
<path d="M17.7338 15.2312C19.3229 15.947 20.5684 16.9707 21.4704 18.3021C22.3866 19.6335 22.8447 21.1439 22.8447 22.8332C22.8447 25.4102 21.7996 27.529 19.7094 29.1897C17.6336 30.8504 14.9492 31.6807 11.6565 31.6807C9.50902 31.6807 7.46178 31.3014 5.51475 30.5426C3.56772 29.7838 1.93565 28.7244 0.618543 27.3643L3.66793 23.5419C4.5985 24.5154 5.74381 25.2742 7.10387 25.8182C8.46392 26.3479 9.86693 26.6127 11.3129 26.6127C13.1167 26.6127 14.5913 26.1904 15.7366 25.3457C16.8963 24.4868 17.4761 23.3987 17.4761 22.0816C17.4761 20.7645 16.9177 19.6836 15.8011 18.8389C14.6987 17.98 13.2885 17.5505 11.5706 17.5505H7.14681V13.0193H11.5706C13.0595 13.0193 14.2907 12.6614 15.2642 11.9456C16.2377 11.2298 16.7245 10.3135 16.7245 9.19686C16.7245 8.08018 16.1948 7.15677 15.1354 6.42664C14.0759 5.6965 12.7159 5.33143 11.0552 5.33143C9.80966 5.33143 8.59993 5.55334 7.42598 5.99714C6.26636 6.44095 5.30716 7.05656 4.54839 7.84396L1.73522 4.04296C2.92348 2.8547 4.40523 1.93129 6.18046 1.27274C7.95569 0.599868 9.8025 0.263433 11.7209 0.263433C14.7703 0.263433 17.2613 1.03652 19.1941 2.58269C21.1268 4.11454 22.0931 6.06873 22.0931 8.44525C22.0931 9.90552 21.7066 11.2298 20.9335 12.418C20.1604 13.6063 19.0938 14.544 17.7338 15.2312ZM34.0759 0.800297H37.7696V31.1439H32.5727V7.00645L27.1611 10.0344L24.9278 5.84682L34.0759 0.800297ZM55.572 11.8382C58.3064 11.8382 60.5827 12.7688 62.4009 14.6299C64.2334 16.4767 65.1497 18.753 65.1497 21.4588C65.1497 24.3937 64.0759 26.8346 61.9285 28.7817C59.781 30.7144 57.0752 31.6807 53.8111 31.6807C50.3608 31.6807 47.5906 30.5855 45.5004 28.3951C43.4102 26.1904 42.3651 23.2341 42.3651 19.5261C42.3651 16.3908 43.1239 13.4631 44.6414 10.743C46.1733 8.02291 48.3637 5.73229 51.2126 3.87116C54.0759 2.01003 57.3615 0.807455 61.0695 0.263433L62.0788 5.15964C58.8862 5.73229 56.1661 6.82034 53.9184 8.42377C51.6708 10.0129 50.0673 11.8812 49.1081 14.0286C50.8118 12.5684 52.9664 11.8382 55.572 11.8382ZM53.854 26.6127C55.5577 26.6127 56.9678 26.1403 58.0845 25.1954C59.2155 24.2362 59.781 23.0265 59.781 21.5662C59.781 20.1632 59.2298 18.9893 58.1275 18.0444C57.0394 17.0995 55.6579 16.6271 53.9829 16.6271C52.3365 16.6271 50.8834 17.0422 49.6235 17.8726C48.3637 18.7029 47.7338 19.8697 47.7338 21.3729C47.7338 22.9048 48.2993 24.1646 49.4303 25.1525C50.5613 26.126 52.0358 26.6127 53.854 26.6127ZM71.6779 31.4875C70.6901 31.4875 69.8526 31.1582 69.1654 30.4996C68.4925 29.8411 68.1561 29.0179 68.1561 28.0301C68.1561 27.0422 68.4925 26.2119 69.1654 25.539C69.8526 24.8518 70.6901 24.5082 71.6779 24.5082C72.6801 24.5082 73.5176 24.8518 74.1904 25.539C74.8633 26.2119 75.1998 27.0422 75.1998 28.0301C75.1998 29.0179 74.8633 29.8411 74.1904 30.4996C73.5176 31.1582 72.6801 31.4875 71.6779 31.4875ZM94.7201 32.1102C96.7674 32.1102 98.4424 32.6113 99.7452 33.6135C101.048 34.6299 101.764 36.0043 101.893 37.7366L99.2513 38.3593C99.2226 37.2427 98.7574 36.3407 97.8554 35.6535C96.9535 34.9663 95.7652 34.6228 94.2906 34.6228H85.4431C83.7108 34.6228 82.3078 34.1646 81.2341 33.2484C80.1747 32.3465 79.645 31.1582 79.645 29.6836C79.645 28.6958 79.8812 27.7795 80.3536 26.9349C80.8261 26.0759 81.4703 25.4245 82.2864 24.9807C80.1962 23.0766 79.1511 20.7072 79.1511 17.8726C79.1511 15.1238 80.1103 12.8261 82.0287 10.9792C83.9471 9.11812 86.3451 8.18755 89.2226 8.18755C91.4274 8.18755 93.3816 8.76021 95.0852 9.90552C95.2427 8.73157 95.7366 7.80101 96.567 7.11382C97.4116 6.42664 98.4853 6.08304 99.7881 6.08304H101.463V8.44525H99.917C99.0151 8.44525 98.2849 8.7101 97.7266 9.23981C97.1682 9.76951 96.8891 10.471 96.8891 11.3443V11.4946C98.4639 13.2556 99.2513 15.3815 99.2513 17.8726C99.2513 20.6213 98.2921 22.912 96.3737 24.7445C94.4696 26.5769 92.0859 27.4932 89.2226 27.4932C87.2184 27.4932 85.4431 27.0422 83.897 26.1403C83.3529 26.4409 82.9306 26.8561 82.63 27.3858C82.3436 27.9155 82.2005 28.481 82.2005 29.0823C82.2005 29.9986 82.5369 30.7287 83.2098 31.2727C83.897 31.8311 84.7917 32.1102 85.8941 32.1102H94.7201ZM81.7924 17.8726C81.7924 19.9198 82.5011 21.6306 83.9184 23.005C85.3358 24.3794 87.1038 25.0666 89.2226 25.0666C91.3272 25.0666 93.0809 24.3794 94.4839 23.005C95.9012 21.6306 96.6099 19.9198 96.6099 17.8726C96.6099 15.7967 95.9084 14.0716 94.5054 12.6972C93.1024 11.3085 91.3415 10.6142 89.2226 10.6142C87.0895 10.6142 85.3143 11.3085 83.897 12.6972C82.4939 14.0716 81.7924 15.7967 81.7924 17.8726ZM116.259 8.35935H116.925V11.0007H116.259C113.682 11.0007 111.628 11.7738 110.096 13.32C108.578 14.8661 107.82 16.9492 107.82 19.5691V31.1439H105.264V8.72442H107.82V13.4273C108.65 11.8239 109.788 10.5784 111.234 9.69077C112.694 8.80316 114.369 8.35935 116.259 8.35935ZM130.454 31.6807C127.075 31.6807 124.248 30.5569 121.971 28.3092C119.709 26.0616 118.578 23.2699 118.578 19.9341C118.578 16.5984 119.709 13.8067 121.971 11.5591C124.248 9.31139 127.075 8.18755 130.454 8.18755C132.659 8.18755 134.663 8.70294 136.467 9.73372C138.285 10.7502 139.709 12.1603 140.74 13.9642C141.771 15.7538 142.286 17.7437 142.286 19.9341C142.286 22.1246 141.771 24.1217 140.74 25.9256C139.709 27.7151 138.285 29.1253 136.467 30.156C134.663 31.1725 132.659 31.6807 130.454 31.6807ZM123.861 26.5698C125.622 28.3307 127.82 29.2112 130.454 29.2112C133.088 29.2112 135.278 28.3307 137.025 26.5698C138.772 24.7946 139.645 22.5827 139.645 19.9341C139.645 17.2856 138.772 15.0809 137.025 13.32C135.278 11.5447 133.088 10.6571 130.454 10.6571C127.82 10.6571 125.622 11.5447 123.861 13.32C122.1 15.0809 121.22 17.2856 121.22 19.9341C121.22 22.5827 122.1 24.7946 123.861 26.5698ZM164.641 29.1038C162.838 30.8218 160.44 31.6807 157.447 31.6807C154.455 31.6807 152.05 30.8218 150.232 29.1038C148.428 27.3858 147.526 25.1167 147.526 22.2963V8.72442H150.06V21.9528C150.06 24.1288 150.733 25.8826 152.079 27.214C153.439 28.5455 155.228 29.2112 157.447 29.2112C159.666 29.2112 161.442 28.5526 162.773 27.2355C164.119 25.9041 164.792 24.1432 164.792 21.9528V8.72442H167.347V22.2963C167.347 25.1167 166.445 27.3858 164.641 29.1038ZM186.288 8.18755C189.552 8.18755 192.272 9.31139 194.448 11.5591C196.638 13.7924 197.734 16.5841 197.734 19.9341C197.734 23.2842 196.638 26.083 194.448 28.3307C192.272 30.5641 189.552 31.6807 186.288 31.6807C184.183 31.6807 182.279 31.1653 180.576 30.1346C178.886 29.1038 177.569 27.7079 176.624 25.947V39.4975H174.069V8.72442H176.624V13.8998C177.555 12.1389 178.872 10.7502 180.576 9.73372C182.279 8.70294 184.183 8.18755 186.288 8.18755ZM179.266 26.5698C181.026 28.3307 183.224 29.2112 185.858 29.2112C188.492 29.2112 190.69 28.3307 192.451 26.5698C194.212 24.7946 195.092 22.5827 195.092 19.9341C195.092 17.2856 194.212 15.0809 192.451 13.32C190.69 11.5447 188.492 10.6571 185.858 10.6571C183.224 10.6571 181.026 11.5447 179.266 13.32C177.505 15.0809 176.624 17.2856 176.624 19.9341C176.624 22.5827 177.505 24.7946 179.266 26.5698Z" fill="black"/>
</svg>
