<svg width="102" height="101" viewBox="0 0 102 101" fill="none" xmlns="http://www.w3.org/2000/svg">
<path d="M51.3918 100.283H51.1688C23.2874 100.283 0.603516 77.9381 0.603516 50.4738V50.2541C0.603516 22.7898 23.2874 0.445312 51.1688 0.445312H51.3918C79.2733 0.445312 101.957 22.7898 101.957 50.2541V50.4738C101.957 77.9381 79.2733 100.283 51.3918 100.283ZM51.1688 3.8247C25.1777 3.8247 4.03423 24.6518 4.03423 50.2541V50.4738C4.03423 76.0761 25.1777 96.9032 51.1688 96.9032H51.3918C77.3829 96.9032 98.5265 76.0761 98.5265 50.4738V50.2541C98.5265 24.6518 77.3829 3.8247 51.3918 3.8247H51.1688Z" fill="#292D32"/>
<path d="M67.4047 82.0192H56.6734C47.0091 82.0192 39.808 77.1225 39.808 65.4061V46.6437H31.0254V36.4853C40.6897 34.0149 44.7311 25.8199 45.1977 18.7266H55.2326V34.8362H66.9416V46.6437H55.2326V62.9831C55.2326 67.8799 57.7404 69.5729 61.7372 69.5729H67.4047V82.0226V82.0192Z" fill="#292D32"/>
</svg>
