<?xml version="1.0" encoding="utf-8"?>
<!-- Generator: Adobe Illustrator 28.1.0, SVG Export Plug-In . SVG Version: 6.00 Build 0)  -->
<svg version="1.1" id="Layer_1" xmlns="http://www.w3.org/2000/svg" xmlns:xlink="http://www.w3.org/1999/xlink" x="0px" y="0px"
	 viewBox="0 0 80 80" style="enable-background:new 0 0 80 80;" xml:space="preserve">
<style type="text/css">
	.st0{fill:none;stroke:#000000;stroke-width:3;stroke-miterlimit:10;}
</style>
<path d="M24.1,40c1.6,0.7,2.8,1.7,3.7,3.1c0.9,1.3,1.4,2.8,1.4,4.5c0,2.6-1,4.7-3.1,6.4c-2.1,1.7-4.8,2.5-8.1,2.5
	c-2.1,0-4.2-0.4-6.1-1.1c-1.9-0.8-3.6-1.8-4.9-3.2l3-3.8c0.9,1,2.1,1.7,3.4,2.3c1.4,0.5,2.8,0.8,4.2,0.8c1.8,0,3.3-0.4,4.4-1.3
	c1.2-0.9,1.7-1.9,1.7-3.3s-0.6-2.4-1.7-3.2c-1.1-0.9-2.5-1.3-4.2-1.3h-4.4v-4.5h4.4c1.5,0,2.7-0.4,3.7-1.1c1-0.7,1.5-1.6,1.5-2.7
	c0-1.1-0.5-2-1.6-2.8c-1.1-0.7-2.4-1.1-4.1-1.1c-1.2,0-2.5,0.2-3.6,0.7c-1.2,0.4-2.1,1.1-2.9,1.8l-2.8-3.8c1.2-1.2,2.7-2.1,4.4-2.8
	c1.8-0.7,3.6-1,5.5-1c3,0,5.5,0.8,7.5,2.3c1.9,1.5,2.9,3.5,2.9,5.9c0,1.5-0.4,2.8-1.2,4C26.5,38.4,25.5,39.3,24.1,40z M40.4,25.6
	h3.7v30.3h-5.2V31.8l-5.4,3l-2.2-4.2L40.4,25.6z M61.9,36.6c2.7,0,5,0.9,6.8,2.8c1.8,1.8,2.7,4.1,2.7,6.8c0,2.9-1.1,5.4-3.2,7.3
	c-2.1,1.9-4.9,2.9-8.1,2.9c-3.5,0-6.2-1.1-8.3-3.3c-2.1-2.2-3.1-5.2-3.1-8.9c0-3.1,0.8-6.1,2.3-8.8c1.5-2.7,3.7-5,6.6-6.9
	c2.9-1.9,6.1-3.1,9.9-3.6l1,4.9c-3.2,0.6-5.9,1.7-8.2,3.3c-2.2,1.6-3.9,3.5-4.8,5.6C57.2,37.3,59.3,36.6,61.9,36.6z M60.2,51.4
	c1.7,0,3.1-0.5,4.2-1.4c1.1-1,1.7-2.2,1.7-3.6c0-1.4-0.6-2.6-1.7-3.5c-1.1-0.9-2.5-1.4-4.1-1.4c-1.6,0-3.1,0.4-4.4,1.2
	c-1.3,0.8-1.9,2-1.9,3.5c0,1.5,0.6,2.8,1.7,3.8C56.9,50.9,58.4,51.4,60.2,51.4z"/>
<circle class="st0" cx="40" cy="39.9" r="37.4"/>
</svg>
